# xmcd
#
# Track frame offsets:
#	150
#	12712
#	26082
#	37698
#	49027
#	59345
#	69780
#	83513
#	94328
#	108457
#	122244
#	136939
#	150212
#	160272
#	174778
#	186120
#	198055
#	210809
#	224268
#	235569
#	247203
#	258459
#	269855
#	279923
#	291295
#	304884
#	319014
#	330139
#	340554
#
# Disc length: 4724 seconds
#
# Revision: 1
# Processed by: cddbd v1.5.1PL0 Copyright (c) Steve Scherf et al.
# Submitted via: audiograbber 1.83.01
#
DISCID=8912721d
DTITLE=Lefty Frizzell - A Proper Introduction to Lefty Frizzell
DYEAR=1900
DGENRE=Country
TTITLE0=I Love You AThousand Ways
TTITLE1=If You've Got The Money, I've Got The Time
TTITLE2=Shine Shave Shower (It's Saturday Night)
TTITLE3=Look What Thoughts Will Do
TTITLE4=My Baby's Just Like Money
TTITLE5=Give Me More More More (of Your Kisses)
TTITLE6=I Want To Be With You Always 
TTITLE7=How Long Will It Take (To Stop Loving You)
TTITLE8=Always Late (With Your Kisses)
TTITLE9=Mom And Dad's Waltz
TTITLE10=Treasure Untold
TTITLE11=Travellin' Blues
TTITLE12=Brakeman's Blues
TTITLE13=Blue Yodel #6
TTITLE14=Blue Yodel #2 (My Loving Gal Lucille)
TTITLE15=My Rough And Rowdy Ways
TTITLE16=It's Just You (I Could Love You Always)
TTITLE17=Don't Stay Away (Till Love Grows Cold)
TTITLE18=If You Can Spare The Time (I Won't Miss The Money)
TTITLE19=A King Without A Queen
TTITLE20=Forever (And Always)
TTITLE21=I Know You're Lonesome (While Waiting For Me)
TTITLE22=(Honey Baby Hurry) Bring Your Sweet Self Back To Me
TTITLE23=Time Changes Things
TTITLE24=California Blues (Blue Yodel #4)
TTITLE25=Never No' Mo' Blues
TTITLE26=I'm An Old Old Man (Tryin' To Love While I Can)
TTITLE27=Then I'll Come Back To You
TTITLE28=Run 'Em Off
EXTD=
EXTT0=
EXTT1=
EXTT2=
EXTT3=
EXTT4=
EXTT5=
EXTT6=
EXTT7=
EXTT8=
EXTT9=
EXTT10=
EXTT11=
EXTT12=
EXTT13=
EXTT14=
EXTT15=
EXTT16=
EXTT17=
EXTT18=
EXTT19=
EXTT20=
EXTT21=
EXTT22=
EXTT23=
EXTT24=
EXTT25=
EXTT26=
EXTT27=
EXTT28=
PLAYORDER=
